io<svg width="18" height="20" viewBox="0 0 18 20" fill="none" xmlns="http://www.w3.org/2000/svg">
<path d="M4.50172 0.44253C4.19384 0.165436 3.71962 0.190393 3.44253 0.498276C3.16544 0.806158 3.19039 1.28038 3.49828 1.55747L4.50172 0.44253ZM14 10L14.5017 10.5575C14.6598 10.4152 14.75 10.2126 14.75 10C14.75 9.78739 14.6598 9.58476 14.5017 9.44253L14 10ZM3.49828 18.4425C3.19039 18.7196 3.16543 19.1938 3.44253 19.5017C3.71962 19.8096 4.19384 19.8346 4.50172 19.5575L3.49828 18.4425ZM3.49828 1.55747L13.4983 10.5575L14.5017 9.44253L4.50172 0.44253L3.49828 1.55747ZM13.4983 9.44253L3.49828 18.4425L4.50172 19.5575L14.5017 10.5575L13.4983 9.44253Z" fill="#A4A4A4"/>
</svg>
