<svg width="18" height="18" viewBox="0 0 18 18" fill="none" xmlns="http://www.w3.org/2000/svg">
<g id="Group 74">
<path id="Rectangle 248" d="M5 14.5C5 13.9477 5.44772 13.5 6 13.5H17C17.5523 13.5 18 13.9477 18 14.5V17C18 17.5523 17.5523 18 17 18H6C5.44772 18 5 17.5523 5 17V14.5Z" fill="#483D8B"/>
<path id="Rectangle 249" d="M5 7.75C5 7.19772 5.44772 6.75 6 6.75H17C17.5523 6.75 18 7.19772 18 7.75V10.25C18 10.8023 17.5523 11.25 17 11.25H11.5H6C5.44772 11.25 5 10.8023 5 10.25V7.75Z" fill="#483D8B"/>
<path id="Rectangle 250" d="M5 1C5 0.447715 5.44772 0 6 0H17C17.5523 0 18 0.447715 18 1V3.5C18 4.05228 17.5523 4.5 17 4.5H6C5.44772 4.5 5 4.05228 5 3.5V1Z" fill="#483D8B"/>
<rect id="Rectangle 251" width="4" height="4.5" rx="1" fill="#483D8B"/>
<rect id="Rectangle 234" y="6.75" width="4" height="4.5" rx="1" fill="#483D8B"/>
<rect id="Rectangle 235" y="13.5" width="4" height="4.5" rx="1" fill="#483D8B"/>
</g>
</svg>
