<svg width="12" height="20" viewBox="0 0 12 20" fill="none" xmlns="http://www.w3.org/2000/svg">
<path id="v" d="M10.4983 19.5575C10.8062 19.8346 11.2804 19.8096 11.5575 19.5017C11.8346 19.1938 11.8096 18.7196 11.5017 18.4425L10.4983 19.5575ZM1 10L0.498276 9.44253C0.340241 9.58476 0.25 9.78738 0.25 10C0.25 10.2126 0.340241 10.4152 0.498276 10.5575L1 10ZM11.5017 1.55747C11.8096 1.28038 11.8346 0.806159 11.5575 0.498276C11.2804 0.190394 10.8062 0.165435 10.4983 0.442529L11.5017 1.55747ZM11.5017 18.4425L1.50172 9.44253L0.498276 10.5575L10.4983 19.5575L11.5017 18.4425ZM1.50172 10.5575L11.5017 1.55747L10.4983 0.442529L0.498276 9.44253L1.50172 10.5575Z" fill="#A4A4A4"/>
</svg>
