<svg width="19" height="20" viewBox="0 0 19 20" fill="none" xmlns="http://www.w3.org/2000/svg">
<path d="M10.4983 19.5575C10.8062 19.8346 11.2804 19.8096 11.5575 19.5017C11.8346 19.1938 11.8096 18.7196 11.5017 18.4425L10.4983 19.5575ZM1 10L0.498276 9.44253C0.340241 9.58476 0.25 9.78738 0.25 10C0.25 10.2126 0.340241 10.4152 0.498276 10.5575L1 10ZM11.5017 1.55747C11.8096 1.28038 11.8346 0.806159 11.5575 0.498276C11.2804 0.190394 10.8062 0.165435 10.4983 0.442529L11.5017 1.55747ZM11.5017 18.4425L1.50172 9.44253L0.498276 10.5575L10.4983 19.5575L11.5017 18.4425ZM1.50172 10.5575L11.5017 1.55747L10.4983 0.442529L0.498276 9.44253L1.50172 10.5575Z" fill="#A4A4A4"/>
<path d="M17.4983 19.5575C17.8062 19.8346 18.2804 19.8096 18.5575 19.5017C18.8346 19.1938 18.8096 18.7196 18.5017 18.4425L17.4983 19.5575ZM8 10L7.49828 9.44253C7.34024 9.58476 7.25 9.78738 7.25 10C7.25 10.2126 7.34024 10.4152 7.49828 10.5575L8 10ZM18.5017 1.55747C18.8096 1.28038 18.8346 0.806159 18.5575 0.498276C18.2804 0.190394 17.8062 0.165435 17.4983 0.442529L18.5017 1.55747ZM18.5017 18.4425L8.50172 9.44253L7.49828 10.5575L17.4983 19.5575L18.5017 18.4425ZM8.50172 10.5575L18.5017 1.55747L17.4983 0.442529L7.49828 9.44253L8.50172 10.5575Z" fill="#A4A4A4"/>
</svg>
