<svg width="23" height="20" viewBox="0 0 23 20" fill="none" xmlns="http://www.w3.org/2000/svg">
<path d="M10.5017 0.44253C10.1938 0.165436 9.71962 0.190393 9.44253 0.498276C9.16544 0.806158 9.19039 1.28038 9.49828 1.55747L10.5017 0.44253ZM20 10L20.5017 10.5575C20.6598 10.4152 20.75 10.2126 20.75 10C20.75 9.78739 20.6598 9.58476 20.5017 9.44253L20 10ZM9.49828 18.4425C9.19039 18.7196 9.16543 19.1938 9.44253 19.5017C9.71962 19.8096 10.1938 19.8346 10.5017 19.5575L9.49828 18.4425ZM9.49828 1.55747L19.4983 10.5575L20.5017 9.44253L10.5017 0.44253L9.49828 1.55747ZM19.4983 9.44253L9.49828 18.4425L10.5017 19.5575L20.5017 10.5575L19.4983 9.44253Z" fill="#A4A4A4"/>
<path d="M3.50172 0.44253C3.19384 0.165436 2.71962 0.190393 2.44253 0.498276C2.16544 0.806158 2.19039 1.28038 2.49828 1.55747L3.50172 0.44253ZM13 10L13.5017 10.5575C13.6598 10.4152 13.75 10.2126 13.75 10C13.75 9.78739 13.6598 9.58476 13.5017 9.44253L13 10ZM2.49828 18.4425C2.19039 18.7196 2.16543 19.1938 2.44253 19.5017C2.71962 19.8096 3.19384 19.8346 3.50172 19.5575L2.49828 18.4425ZM2.49828 1.55747L12.4983 10.5575L13.5017 9.44253L3.50172 0.44253L2.49828 1.55747ZM12.4983 9.44253L2.49828 18.4425L3.50172 19.5575L13.5017 10.5575L12.4983 9.44253Z" fill="#A4A4A4"/>
</svg>
