<svg width="36" height="36" viewBox="0 0 36 36" fill="none" xmlns="http://www.w3.org/2000/svg">
<g id="icon-mypage">
<path id="v" d="M30.6 33H30.57M30.57 33H5.4C4.08 33 3 31.92 3 30.6V25.125C3 24.75 3 24.555 3.18 24.195C3.75 22.875 5.43 21.765 8.055 20.82M30.57 33C31.89 33 32.97 31.92 32.97 30.6V25.125C32.97 24.765 32.97 24.375 32.79 24.195C32.235 22.89 30.54 21.75 27.915 20.82M18 20.25C13.875 20.25 10.5 16.875 10.5 12.75V10.5C10.5 6.375 13.875 3 18 3C22.125 3 25.5 6.375 25.5 10.5V12.75C25.5 16.875 22.125 20.25 18 20.25Z" stroke="black" stroke-width="4" stroke-linecap="round" stroke-linejoin="round"/>
</g>
</svg>
