<svg width="24" height="25" viewBox="0 0 24 25" fill="none" xmlns="http://www.w3.org/2000/svg">
<g id="si:Align_justify">
<g id="v">
<path d="M3 5.5C2.44772 5.5 2 5.94772 2 6.5C2 7.05228 2.44772 7.5 3 7.5H21C21.5523 7.5 22 7.05228 22 6.5C22 5.94772 21.5523 5.5 21 5.5H3Z" fill="black"/>
<path d="M3 9.5C2.44772 9.5 2 9.94772 2 10.5C2 11.0523 2.44772 11.5 3 11.5H21C21.5523 11.5 22 11.0523 22 10.5C22 9.94772 21.5523 9.5 21 9.5H3Z" fill="black"/>
<path d="M2 14.5C2 13.9477 2.44772 13.5 3 13.5H21C21.5523 13.5 22 13.9477 22 14.5C22 15.0523 21.5523 15.5 21 15.5H3C2.44772 15.5 2 15.0523 2 14.5Z" fill="black"/>
<path d="M3 17.5C2.44772 17.5 2 17.9477 2 18.5C2 19.0523 2.44772 19.5 3 19.5H21C21.5523 19.5 22 19.0523 22 18.5C22 17.9477 21.5523 17.5 21 17.5H3Z" fill="black"/>
</g>
</g>
</svg>
