<svg width="36" height="36" viewBox="0 0 36 36" fill="none" xmlns="http://www.w3.org/2000/svg">
<g id="icon-search" clip-path="url(#clip0_115_159)">
<path id="v" fill-rule="evenodd" clip-rule="evenodd" d="M14.6642 0C6.56537 0 0 6.49302 0 14.5026C0 22.5121 6.56537 29.0051 14.6642 29.0051C17.958 29.0051 20.9982 27.9311 23.4462 26.1179L32.2961 35.3932C33.1142 36.2023 34.533 36.2023 35.3511 35.3932C36.1692 34.5841 36.1692 33.1809 35.3511 32.3718L26.4089 23.1879C28.2423 20.7668 29.3283 17.7601 29.3283 14.5026C29.3283 6.49302 22.7629 0 14.6642 0ZM4.18976 14.5026C4.18976 8.78147 8.87931 4.14359 14.6642 4.14359C20.449 4.14359 25.1386 8.78147 25.1386 14.5026C25.1386 20.2237 20.449 24.8616 14.6642 24.8616C8.87931 24.8616 4.18976 20.2237 4.18976 14.5026Z" fill="black"/>
</g>
<defs>
<clipPath id="clip0_115_159">
<rect width="35.9647" height="36" fill="white"/>
</clipPath>
</defs>
</svg>
